<?xml version="1.0" encoding="utf-8"?>
<!-- Generator: Adobe Illustrator 22.0.1, SVG Export Plug-In . SVG Version: 6.00 Build 0)  -->
<svg version="1.1" id="Capa_1" xmlns="http://www.w3.org/2000/svg" xmlns:xlink="http://www.w3.org/1999/xlink" x="0px" y="0px"
	 width="267.2333px" height="457.3671px" viewBox="0 0 267.2333 457.3671" style="enable-background:new 0 0 267.2333 457.3671;"
	 xml:space="preserve">
<style type="text/css">
	.st0{fill:#E4E4E4;}
</style>
<path class="st0" d="M251.7528,399.599c11.1418,12.3175,10.5847,24.0342,7.5416,32.3859
	c-3.3594,9.2197-10.7524,16.4971-19.9796,19.8357c-18.5756,6.721-32.312-7.4776-32.312-7.4776L14.072,251.3731
	c-2.5303-2.5307-4.7814-5.3435-6.5322-8.4646c-11.4717-20.451,4.197-36.5651,4.197-36.5651L205.1817,12.7957
	c3.1717-3.1734,6.8042-5.8809,10.8579-7.8038c21.0799-9.9992,35.7082,6.0471,35.7082,6.0471
	c11.0124,12.0564,10.3809,23.8826,7.5826,32.0847c-1.752,5.1351-4.7774,9.7426-8.6128,13.5804L79.8388,227.69L251.7528,399.599z"/>
</svg>
