<?xml version="1.0" encoding="utf-8"?>
<!-- Generator: Adobe Illustrator 22.0.1, SVG Export Plug-In . SVG Version: 6.00 Build 0)  -->
<svg version="1.1" id="Capa_1" xmlns="http://www.w3.org/2000/svg" xmlns:xlink="http://www.w3.org/1999/xlink" x="0px" y="0px"
	 viewBox="0 0 267.2333 457.3671" style="enable-background:new 0 0 267.2333 457.3671;" xml:space="preserve">
<style type="text/css">
	.st0{fill:#353535;}
</style>
<path class="st0" d="M184.6867,227.69L13.8079,56.7041c-3.8354-3.8378-6.8608-8.4453-8.6128-13.5804
	c-2.7983-8.2021-3.4298-20.0283,7.5826-32.0847c0,0,14.6283-16.0463,35.7082-6.0471c4.0537,1.9229,7.6862,4.6304,10.8579,7.8038
	l193.4449,193.5477c0,0,15.6687,16.1141,4.197,36.5651c-1.7508,3.1211-4.0019,5.9339-6.5322,8.4646L57.5227,444.343
	c0,0-13.7364,14.1986-32.312,7.4776c-9.2272-3.3386-16.6202-10.616-19.9796-19.8357c-3.0431-8.3517-3.6002-20.0684,7.5416-32.3859
	L184.6867,227.69z"/>
</svg>
