<?xml version="1.0" encoding="utf-8"?>
<!-- Generator: Adobe Illustrator 22.0.1, SVG Export Plug-In . SVG Version: 6.00 Build 0)  -->
<svg version="1.1" id="logo" xmlns="http://www.w3.org/2000/svg" xmlns:xlink="http://www.w3.org/1999/xlink" x="0px" y="0px"
	 viewBox="0 0 349.8945 65.4609" style="enable-background:new 0 0 349.8945 65.4609;" xml:space="preserve">
<style type="text/css">
	.st0{fill:#019390;stroke:#005752;stroke-width:0.75;stroke-miterlimit:10;}
	.st1{fill:#353535;stroke:#005752;stroke-width:0.7132;stroke-miterlimit:10;}
	.st2{fill:#353535;stroke:#005752;stroke-width:0.75;stroke-miterlimit:10;}
	.st3{fill:#019390;stroke:#005752;stroke-width:0.5;stroke-miterlimit:10;}
	.st4{fill:#353535;stroke:#005752;stroke-width:0.5868;stroke-miterlimit:10;}
	.st5{fill:#019390;}
</style>
<path class="st0" d="M12.8295,3.5583h20.4552c0.2498,0,0.4195,0.2536,0.3243,0.4846L22.0939,31.967
	c-0.0511,0.124,0.0979,0.2337,0.2011,0.148l18.6612-15.5032c0.1926-0.16,0.435-0.2475,0.6853-0.2475h19.6562
	c0.2455,0,0.4161,0.2442,0.3316,0.4747l-2.9453,8.0326c-0.0941,0.2565-0.3382,0.4271-0.6115,0.4271H47.5539
	c-0.2226,0-0.4388,0.074-0.6147,0.2104L33.0547,36.2767c-0.2606,0.2021-0.3613,0.549-0.2494,0.8592l6.2077,17.2122
	c0.094,0.2606,0.3412,0.4342,0.6182,0.4342h127.3567c0.2667,0,0.456,0.2598,0.3744,0.5136l-2.3654,7.359
	c-0.0893,0.2778-0.3477,0.4662-0.6395,0.4662H31.3683c-0.3219,0-0.6085-0.2038-0.7142-0.5078l-6.8188-19.6042
	c-0.0731-0.2101-0.3347-0.2807-0.5035-0.136l-7.6791,6.5821c-0.2026,0.1737-0.3617,0.3925-0.4643,0.6389l-2.6524,6.3657
	c-0.1027,0.2465-0.3436,0.4071-0.6107,0.4071H2.1685c-0.2516,0-0.4243-0.2532-0.3325-0.4874l16.9293-43.1988
	c0.0735-0.1875-0.0648-0.3902-0.2662-0.3902H8.4685c-0.1274,0-0.2122-0.1315-0.1598-0.2475l3.8669-8.5625
	C12.2917,3.7235,12.5475,3.5583,12.8295,3.5583z"/>
<path class="st0" d="M46.9366,36.8057c-0.2667,0.0097-0.4633-0.2419-0.3875-0.4978c0.5428-1.8334,2.9065-7.8936,10.3449-7.4428
	c5.6911,0.3449,7.6829,2.5955,8.5258,4.7844c0.7218,1.8744,0.6414,3.9606-0.0609,5.8424c-0.4729,1.267-1.155,2.7546-2.0589,3.9168
	c-0.0208,0.0268-0.019,0.0589,0.0105,0.0757c0.3047,0.1734,1.9287,1.1931,1.8338,3.1856c-0.1047,2.1982-0.6281,3.559-2.5122,4.1871
	c-1.8647,0.6216-7.5229,0.833-8.7557-2.2067c-0.0125-0.0308-0.0515-0.0335-0.0608-0.0015
	c-0.1613,0.5589-1.2887,3.3658-7.4771,2.3095c-2.0585-0.3514-3.7914-1.9189-4.1647-3.9735
	c-0.0318-0.1751-0.056-0.3572-0.0715-0.5466c0,0-1.0156-5.1286,5.9728-7.5167c1.1408-0.3899,2.3297-0.6043,3.5278-0.7385
	c1.5841-0.1774,4.5795-0.6691,6.8644-1.9724c0.9563-0.5455,0.8083-1.9708-0.2369-2.3165l0,0
	c-0.6872-0.2192-1.4492-0.1241-2.083,0.2203c-0.6403,0.3479-1.4408,0.9795-1.9029,2.0829c-0.0863,0.206-0.2737,0.3538-0.4969,0.3619
	L46.9366,36.8057z"/>
<path class="st1" d="M55.585,41.5576c-1.1914,0.0478-3.7286,0.3644-4.0419,2.1794c-0.1118,0.6475,0.1658,1.3478,0.7605,1.6271
	c0.5101,0.2396,1.2984,0.2396,2.4113-0.7187c0,0,1.2234-0.9841,1.6817-1.8881C56.6839,42.1905,56.2199,41.5321,55.585,41.5576z"/>
<path class="st0" d="M107.8697,36.8057c-0.2667,0.0097-0.4633-0.2419-0.3875-0.4978c0.5428-1.8334,2.9065-7.8936,10.3449-7.4428
	c5.6911,0.3449,7.6829,2.5955,8.5258,4.7844c0.7218,1.8744,0.6414,3.9606-0.0609,5.8424c-0.4729,1.267-1.155,2.7546-2.0589,3.9168
	c-0.0208,0.0268-0.019,0.0589,0.0105,0.0757c0.3047,0.1734,1.9287,1.1931,1.8338,3.1856c-0.1047,2.1982-0.6281,3.559-2.5122,4.1871
	c-1.8647,0.6216-7.5229,0.833-8.7557-2.2067c-0.0125-0.0308-0.0515-0.0335-0.0608-0.0015
	c-0.1613,0.5589-1.2887,3.3658-7.4771,2.3095c-2.0585-0.3514-3.7914-1.9189-4.1647-3.9735
	c-0.0318-0.1751-0.056-0.3572-0.0715-0.5466c0,0-1.0156-5.1286,5.9728-7.5167c1.1408-0.3899,2.3297-0.6043,3.5278-0.7385
	c1.5841-0.1774,4.5795-0.6691,6.8644-1.9724c0.9563-0.5455,0.8083-1.9708-0.2369-2.3165v0
	c-0.6872-0.2192-1.4492-0.1241-2.083,0.2203c-0.6403,0.3479-1.4408,0.9795-1.9029,2.0829c-0.0863,0.206-0.2737,0.3538-0.4969,0.3619
	L107.8697,36.8057z"/>
<path class="st1" d="M116.5181,41.5576c-1.1914,0.0478-3.7286,0.3644-4.0419,2.1794c-0.1118,0.6475,0.1658,1.3478,0.7605,1.6271
	c0.5101,0.2396,1.2984,0.2396,2.4113-0.7187c0,0,1.2234-0.9841,1.6817-1.8881C117.617,42.1905,117.153,41.5321,116.5181,41.5576z"/>
<path class="st0" d="M155.3417,36.8057c-0.2667,0.0097-0.4633-0.2419-0.3875-0.4978c0.5428-1.8334,2.9065-7.8936,10.3449-7.4428
	c5.6911,0.3449,7.6829,2.5955,8.5258,4.7844c0.7218,1.8744,0.6414,3.9606-0.0609,5.8424c-0.4729,1.267-1.155,2.7546-2.0589,3.9168
	c-0.0208,0.0268-0.019,0.0589,0.0105,0.0757c0.3047,0.1734,1.9287,1.1931,1.8338,3.1856c-0.1047,2.1982-0.6281,3.559-2.5122,4.1871
	c-1.8647,0.6216-7.5229,0.833-8.7557-2.2067c-0.0125-0.0308-0.0515-0.0335-0.0608-0.0015
	c-0.1613,0.5589-1.2887,3.3658-7.4771,2.3095c-2.0585-0.3514-3.7914-1.9189-4.1647-3.9735
	c-0.0318-0.1751-0.056-0.3572-0.0715-0.5466c0,0-1.0155-5.1286,5.9728-7.5167c1.1408-0.3899,2.3297-0.6043,3.5278-0.7385
	c1.5841-0.1774,4.5795-0.6691,6.8644-1.9724c0.9563-0.5455,0.8083-1.9708-0.2369-2.3165v0
	c-0.6872-0.2192-1.4492-0.1241-2.083,0.2203c-0.6403,0.3479-1.4409,0.9795-1.9029,2.0829c-0.0863,0.206-0.2737,0.3538-0.4969,0.3619
	L155.3417,36.8057z"/>
<path class="st1" d="M163.9901,41.5576c-1.1914,0.0478-3.7286,0.3644-4.0419,2.1794c-0.1118,0.6475,0.1658,1.3478,0.7605,1.6271
	c0.5101,0.2396,1.2984,0.2396,2.4113-0.7187c0,0,1.2234-0.9841,1.6817-1.8881C165.089,42.1905,164.625,41.5321,163.9901,41.5576z"/>
<path class="st0" d="M72.8376,39.2563c0,0,1.3003-2.171-0.3251-3.5958c0,0-1.3653-0.4205-1.5603-1.9403s0.5297-3.0802,2.3778-2.9445
	l8.0799-0.0077c0.2924-0.0003,0.5296,0.247,0.5296,0.5522v1.0839c0,0,1.7487-2.7877,5.2586-2.5842
	c3.7233,0.2159,4.1446,1.1055,4.9578,2.359c0.1189,0.1833,0.3644,0.209,0.5071,0.0452c0.5954-0.6836,2.3427-1.833,4.8211-2.3024
	c1.1215-0.2124,1.9799-0.1755,3.0224,0.3052c1.1614,0.5355,2.6884,1.267,2.9199,3.6845c0.0951,0.9935-0.0672,1.9956-0.3657,2.9442
	l-2.5274,8.0321c0,0,1.4953,2.171,0.6501,4.6813c0,0,0.1459,1.5039-3.5133,1.7382l-3.0236-0.1064
	c-1.1207-0.0394-2.2417-0.0011-3.3631,0.0049c-0.8552,0.0045-1.9943-0.3552-1.1318-2.5542l0.4678-1.6434
	c0.2842-1.0875,0.7461-1.3948,1.7369-1.8438c0.2196-0.0995,0.4589-0.1794,0.7168-0.2277c0.2726-0.051,0.5112-0.2083,0.619-0.4745
	c0.6253-1.5431,2.482-6.7787-0.8955-7.241c-3.9658-0.5428-4.616,7.9379-4.616,7.9379s0.9752,0.6785,0.8452,1.764l-0.2269,1.9886
	c0,0,0.5431,2.4613-4.2029,2.4613l-3.7335-0.0657c-1.325,0-1.8346-1.0423-1.5769-2.3986l0,0l0.257-1.0726
	c0.1188-0.4959,0.3044-0.9719,0.5754-1.3977c0.4453-0.6993,1.2477-1.6111,2.5363-1.9636c0,0.0001,3.6409-6.7786-0.26-6.9821
	c-3.9008-0.2035-5.1361,7.7344-5.1361,7.7344s1.1702,0.4749,1.1052,2.171c0,0,1.366,4.3034-5.9954,4.3548
	c-0.8578,0.006-1.7097-0.1132-2.5666-0.073c-1.5986,0.075-4.0468-0.504-2.9454-4.0783c0,0,0.5851-2.6459,3.5106-2.6459
	L72.8376,39.2563z"/>
<path class="st0" d="M150.0237,37.4846h-4.7395c-0.2941,0-0.5553-0.1912-0.6366-0.4739c-0.4096-1.423-1.8657-5.4348-4.8146-3.3441
	c0,0-2.989,2.1286,4.3752,4.6844c0,0,5.1116,1.4728,4.7217,5.6748c-0.156,1.6808-1.0743,3.1259-2.1202,4.2549
	c-2.174,2.3468-5.2439,3.6371-8.4379,3.8171c-2.1833,0.1231-4.7899-0.2256-7.2026-1.8342c-4.2717-2.8478-3.8858-6.05-3.4669-7.4007
	c0.1227-0.3955,0.4934-0.6566,0.9075-0.6566h4.6945c0.4732,0,0.8759,0.3413,0.946,0.8093c0.2527,1.687,1.1492,5.3208,4.1098,4.0423
	c3.8121-1.6461-0.3899-4.3319-3.7687-5.5448c0,0-5.6314-2.2526-3.3789-7.3642c2.2526-5.1116,7.7107-5.978,7.7107-5.978
	s13.0134-2.5695,11.9613,8.5468C150.8433,37.1543,150.462,37.4846,150.0237,37.4846z"/>
<path class="st0" d="M179.3203,35.9865h11.2362c0.1823,0,0.3073,0.1836,0.2405,0.3532l-2.2496,5.7106
	c-0.0989,0.2511-0.3413,0.4161-0.6112,0.4161h-11.4457c-0.1638,0-0.274-0.1679-0.2087-0.3182l2.532-5.8295
	C178.9014,36.117,179.1004,35.9865,179.3203,35.9865z"/>
<path class="st0" d="M188.2195,31.0833l4.3744-10.453c0.106-0.2533,0.3537-0.4182,0.6283-0.4182h26.4172
	c0.3885,0,0.652,0.3951,0.5027,0.7538l-4.8194,11.5783c-0.1417,0.3405-0.4743,0.5623-0.8432,0.5623h-4.3204
	c-0.8027,0-1.3346-0.8439-0.9763-1.5623c1.057-2.1195,2.4957-5.6246,0.3423-5.4413c0,0-0.8509-0.8509-3.4036,5.8909l-4.2608,10.982
	c-0.2153,0.5549,0.0493,1.1805,0.5975,1.4124l1.3328,0.5639c0.6163,0.2607,0.9335,0.9471,0.7327,1.5855l-1.1981,3.8083
	c-0.1669,0.5306-0.6588,0.8915-1.215,0.8915h-12.7128c-0.8152,0-1.3859-0.8054-1.1157-1.5745l1.6871-4.8019
	c0.1903-0.5415,0.6791-0.9223,1.2507-0.9741l1.8589-0.1687c0.4915-0.0446,0.9151-0.3643,1.0927-0.8248l5.0117-12.9939
	c0,0,1.8982-4.9091-0.2618-3.8618c-1.6961,0.8224-2.9139,4.3189-3.3588,5.7828c-0.1169,0.3849-0.4778,0.6405-0.8799,0.6293
	l-5.6837-0.1585C188.3873,32.2739,187.9832,31.648,188.2195,31.0833z"/>
<path class="st0" d="M245.5633,41.8811c-4.091,9.1599-13.653,12.8243-20.7783,10.6137c-7.353-2.2812-10.0543-13.3973-5.9633-22.5572
	c4.0911-9.1599,13.0942-13.1361,20.7783-10.6137C248.7,22.311,249.6544,32.7212,245.5633,41.8811z"/>
<ellipse transform="matrix(0.4078 -0.9131 0.9131 0.4078 105.1016 232.9963)" class="st2" cx="232.1715" cy="35.4735" rx="10.0789" ry="6.9742"/>
<path class="st0" d="M278.0089,41.8811c-4.0911,9.1599-13.653,12.8243-20.7783,10.6137
	c-7.353-2.2812-10.0543-13.3973-5.9633-22.5572c4.091-9.1599,13.0942-13.1361,20.7783-10.6137
	C281.1456,22.311,282.1,32.7212,278.0089,41.8811z"/>
<ellipse transform="matrix(0.4078 -0.9131 0.9131 0.4078 124.3159 262.6214)" class="st2" cx="264.6171" cy="35.4735" rx="10.0789" ry="6.9742"/>
<path class="st0" d="M298.4464,26.2852l-6.684,16.4167c-0.0804,0.1975,0.0649,0.4136,0.2782,0.4136h5.3452
	c0.3082,0,0.5851-0.1884,0.6982-0.4751l1.5682-3.9729c0.0482-0.1222,0.1663-0.2025,0.2976-0.2025h6.8117
	c0.2965,0,0.4992,0.2996,0.3888,0.5748l-4.5402,11.3225c-0.1122,0.2797-0.3832,0.4631-0.6846,0.4631h-24.6496
	c-0.213,0-0.3653-0.2062-0.3025-0.4098l2.2453-7.2836c0.0815-0.2645,0.326-0.4449,0.6027-0.4449h2.769
	c0.3017,0,0.574-0.1811,0.6906-0.4593l6.3152-15.0637c0.0769-0.1836-0.0579-0.3863-0.2569-0.3863h-3.8618
	c-0.5813,0-0.9988-0.5597-0.8332-1.1169l1.5443-5.1943c0.0848-0.2853,0.347-0.4809,0.6447-0.4809h18.281
	c0.274,0,0.4689,0.2663,0.3862,0.5274l-1.539,4.8576c-0.1159,0.3658-0.4555,0.6144-0.8393,0.6141l-4.2256-0.0024
	C298.699,25.9825,298.521,26.1021,298.4464,26.2852z"/>
<path class="st0" d="M331.8712,20.2325h5.664c0.275,0,0.4674,0.2717,0.3762,0.5311l-3.6187,10.2921
	c-0.0677,0.1925-0.2495,0.3213-0.4535,0.3213h-5.1581c-0.2106,0-0.4004-0.1207-0.4838-0.3141
	c-0.6663-1.5439-3.8048-8.0806-7.5029-3.706c0,0-2.0864,2.3408,4.7326,4.5799c7.7067,2.5305,9.058,8.9054,5.7503,13.9433
	c-3.2999,5.0259-9.5879,7.9247-18.5609,2.2795c-0.0315-0.0198-0.074-0.0048-0.0839,0.0311l-0.6086,2.2003
	c-0.1399,0.5056-0.6,0.8558-1.1246,0.8558h-6.8886c-0.2472,0-0.4154-0.2508-0.3216-0.4795l5.0317-12.2687
	c0.1003-0.2446,0.3384-0.4043,0.6028-0.4043h3.7917c0.3547,0,0.6701,0.2163,0.7915,0.5495
	c0.6675,1.8322,3.1467,7.4983,7.6509,5.3535c0,0,6.8377-3.3956-3.9906-7.2072c-1.9574-0.689-3.7366-1.8955-4.8983-3.615
	c-1.6029-2.3725-2.3977-6.0408,1.7645-10.7543c0,0,7.3773-8.0751,15.8171-0.6932c0.1381,0.1208,0.3524,0.0978,0.4521-0.0563
	l0.7476-1.1553C331.4646,20.3392,331.6608,20.2325,331.8712,20.2325z"/>
<circle class="st3" cx="339.5269" cy="54.8495" r="8.0093"/>
<circle class="st4" cx="339.5269" cy="54.8495" r="6.6464"/>
<g>
	<path class="st5" d="M339.7713,55.5474h-1.6699v2.876h-0.9424V51.314h2.3535c0.8008,0,1.417,0.1826,1.8477,0.5469
		c0.4316,0.3643,0.6475,0.8955,0.6475,1.5918c0,0.4424-0.1201,0.8281-0.3584,1.1572c-0.2402,0.3291-0.5723,0.5742-0.999,0.7373
		l1.6699,3.0176v0.0586h-1.0059L339.7713,55.5474z M338.1014,54.7808h1.4404c0.4658,0,0.8359-0.1211,1.1113-0.3623
		c0.2744-0.2412,0.4121-0.5635,0.4121-0.9678c0-0.4404-0.1309-0.7783-0.3926-1.0127c-0.2627-0.2354-0.6406-0.3545-1.1357-0.3574
		h-1.4355V54.7808z"/>
</g>
</svg>
