<?xml version="1.0" encoding="utf-8"?>
<!-- Generator: Adobe Illustrator 22.0.1, SVG Export Plug-In . SVG Version: 6.00 Build 0)  -->
<svg version="1.1" id="logo" xmlns="http://www.w3.org/2000/svg" xmlns:xlink="http://www.w3.org/1999/xlink" x="0px" y="0px"
	 viewBox="0 0 322.5 75.1" style="enable-background:new 0 0 322.5 75.1;" xml:space="preserve">
<style type="text/css">
	.st0{fill:#019390;stroke:#005752;stroke-width:0.75;stroke-miterlimit:10;}
	.st1{fill:#353535;stroke:#005752;stroke-width:0.7132;stroke-miterlimit:10;}
	.st2{fill:#019390;stroke:#005752;stroke-width:0.7421;stroke-miterlimit:10;}
	.st3{fill:#353535;stroke:#005752;stroke-width:0.6822;stroke-miterlimit:10;}
	.st4{fill:#019390;stroke:#005752;stroke-width:0.5;stroke-miterlimit:10;}
	.st5{fill:#353535;stroke:#005752;stroke-width:0.5868;stroke-miterlimit:10;}
	.st6{fill:#019390;}
	.st7{fill:#019390;stroke:#005752;stroke-width:0.7553;stroke-miterlimit:10;}
	.st8{fill:#019390;stroke:#005752;stroke-width:0.6948;stroke-miterlimit:10;}
	.st9{fill:#353535;stroke:#005752;stroke-width:0.6826;stroke-miterlimit:10;}
	.st10{fill:#019390;stroke:#005752;stroke-width:0.4816;stroke-miterlimit:10;}
</style>
<path class="st0" d="M12.8,3.6h20.5c0.2,0,0.4,0.3,0.3,0.5L22.1,32c-0.1,0.1,0.1,0.2,0.2,0.1L41,16.6c0.2-0.2,0.4-0.2,0.7-0.2h19.7
	c0.2,0,0.4,0.2,0.3,0.5l-2.9,8c-0.1,0.3-0.3,0.4-0.6,0.4H47.6c-0.2,0-0.4,0.1-0.6,0.2L33.1,36.3c-0.3,0.2-0.4,0.5-0.2,0.9L39,54.3
	c0.1,0.3,0.3,0.4,0.6,0.4H167c0.3,0,0.5,0.3,0.4,0.5l-2.4,7.4c-0.1,0.3-0.3,0.5-0.6,0.5h-133c-0.3,0-0.6-0.2-0.7-0.5L23.8,43
	c-0.1-0.2-0.3-0.3-0.5-0.1l-7.7,6.6c-0.2,0.2-0.4,0.4-0.5,0.6l-2.7,6.4c-0.1,0.2-0.3,0.4-0.6,0.4H2.2c-0.3,0-0.4-0.3-0.3-0.5
	l16.9-43.2c0.1-0.2-0.1-0.4-0.3-0.4h-10c-0.1,0-0.2-0.1-0.2-0.2L12.2,4C12.3,3.7,12.5,3.6,12.8,3.6z"/>
<path class="st0" d="M46.9,36.8c-0.3,0-0.5-0.2-0.4-0.5c0.5-1.8,2.9-7.9,10.3-7.4c5.7,0.3,7.7,2.6,8.5,4.8c0.7,1.9,0.6,4-0.1,5.8
	c-0.5,1.3-1.2,2.8-2.1,3.9c0,0,0,0.1,0,0.1c0.3,0.2,1.9,1.2,1.8,3.2c-0.1,2.2-0.6,3.6-2.5,4.2c-1.9,0.6-7.5,0.8-8.8-2.2
	c0,0-0.1,0-0.1,0c-0.2,0.6-1.3,3.4-7.5,2.3c-2.1-0.4-3.8-1.9-4.2-4c0-0.2-0.1-0.4-0.1-0.5c0,0-1-5.1,6-7.5c1.1-0.4,2.3-0.6,3.5-0.7
	c1.6-0.2,4.6-0.7,6.9-2c1-0.5,0.8-2-0.2-2.3l0,0c-0.7-0.2-1.4-0.1-2.1,0.2c-0.6,0.3-1.4,1-1.9,2.1c-0.1,0.2-0.3,0.4-0.5,0.4
	L46.9,36.8z"/>
<path class="st1" d="M55.6,41.6c-1.2,0-3.7,0.4-4,2.2c-0.1,0.6,0.2,1.3,0.8,1.6c0.5,0.2,1.3,0.2,2.4-0.7c0,0,1.2-1,1.7-1.9
	C56.7,42.2,56.2,41.5,55.6,41.6z"/>
<path class="st0" d="M107.9,36.8c-0.3,0-0.5-0.2-0.4-0.5c0.5-1.8,2.9-7.9,10.3-7.4c5.7,0.3,7.7,2.6,8.5,4.8c0.7,1.9,0.6,4-0.1,5.8
	c-0.5,1.3-1.2,2.8-2.1,3.9c0,0,0,0.1,0,0.1c0.3,0.2,1.9,1.2,1.8,3.2c-0.1,2.2-0.6,3.6-2.5,4.2c-1.9,0.6-7.5,0.8-8.8-2.2
	c0,0-0.1,0-0.1,0c-0.2,0.6-1.3,3.4-7.5,2.3c-2.1-0.4-3.8-1.9-4.2-4c0-0.2-0.1-0.4-0.1-0.5c0,0-1-5.1,6-7.5c1.1-0.4,2.3-0.6,3.5-0.7
	c1.6-0.2,4.6-0.7,6.9-2c1-0.5,0.8-2-0.2-2.3l0,0c-0.7-0.2-1.4-0.1-2.1,0.2c-0.6,0.3-1.4,1-1.9,2.1c-0.1,0.2-0.3,0.4-0.5,0.4
	L107.9,36.8z"/>
<path class="st1" d="M116.5,41.6c-1.2,0-3.7,0.4-4,2.2c-0.1,0.6,0.2,1.3,0.8,1.6c0.5,0.2,1.3,0.2,2.4-0.7c0,0,1.2-1,1.7-1.9
	C117.6,42.2,117.2,41.5,116.5,41.6z"/>
<path class="st0" d="M155.3,36.8c-0.3,0-0.5-0.2-0.4-0.5c0.5-1.8,2.9-7.9,10.3-7.4c5.7,0.3,7.7,2.6,8.5,4.8c0.7,1.9,0.6,4-0.1,5.8
	c-0.5,1.3-1.2,2.8-2.1,3.9c0,0,0,0.1,0,0.1c0.3,0.2,1.9,1.2,1.8,3.2c-0.1,2.2-0.6,3.6-2.5,4.2c-1.9,0.6-7.5,0.8-8.8-2.2
	c0,0-0.1,0-0.1,0c-0.2,0.6-1.3,3.4-7.5,2.3c-2.1-0.4-3.8-1.9-4.2-4c0-0.2-0.1-0.4-0.1-0.5c0,0-1-5.1,6-7.5c1.1-0.4,2.3-0.6,3.5-0.7
	c1.6-0.2,4.6-0.7,6.9-2c1-0.5,0.8-2-0.2-2.3l0,0c-0.7-0.2-1.4-0.1-2.1,0.2c-0.6,0.3-1.4,1-1.9,2.1c-0.1,0.2-0.3,0.4-0.5,0.4
	L155.3,36.8z"/>
<path class="st1" d="M164,41.6c-1.2,0-3.7,0.4-4,2.2c-0.1,0.6,0.2,1.3,0.8,1.6c0.5,0.2,1.3,0.2,2.4-0.7c0,0,1.2-1,1.7-1.9
	C165.1,42.2,164.6,41.5,164,41.6z"/>
<path class="st0" d="M72.8,39.3c0,0,1.3-2.2-0.3-3.6c0,0-1.4-0.4-1.6-1.9s0.5-3.1,2.4-2.9l8.1,0c0.3,0,0.5,0.2,0.5,0.6v1.1
	c0,0,1.7-2.8,5.3-2.6c3.7,0.2,4.1,1.1,5,2.4c0.1,0.2,0.4,0.2,0.5,0c0.6-0.7,2.3-1.8,4.8-2.3c1.1-0.2,2-0.2,3,0.3
	c1.2,0.5,2.7,1.3,2.9,3.7c0.1,1-0.1,2-0.4,2.9l-2.5,8c0,0,1.5,2.2,0.7,4.7c0,0,0.1,1.5-3.5,1.7l-3-0.1c-1.1,0-2.2,0-3.4,0
	c-0.9,0-2-0.4-1.1-2.6l0.5-1.6c0.3-1.1,0.7-1.4,1.7-1.8c0.2-0.1,0.5-0.2,0.7-0.2c0.3-0.1,0.5-0.2,0.6-0.5c0.6-1.5,2.5-6.8-0.9-7.2
	c-4-0.5-4.6,7.9-4.6,7.9s1,0.7,0.8,1.8l-0.2,2c0,0,0.5,2.5-4.2,2.5l-3.7-0.1c-1.3,0-1.8-1-1.6-2.4l0,0l0.3-1.1
	c0.1-0.5,0.3-1,0.6-1.4c0.4-0.7,1.2-1.6,2.5-2c0,0,3.6-6.8-0.3-7c-3.9-0.2-5.1,7.7-5.1,7.7s1.2,0.5,1.1,2.2c0,0,1.4,4.3-6,4.4
	c-0.9,0-1.7-0.1-2.6-0.1c-1.6,0.1-4-0.5-2.9-4.1c0,0,0.6-2.6,3.5-2.6L72.8,39.3z"/>
<path class="st0" d="M150,37.5h-4.7c-0.3,0-0.6-0.2-0.6-0.5c-0.4-1.4-1.9-5.4-4.8-3.3c0,0-3,2.1,4.4,4.7c0,0,5.1,1.5,4.7,5.7
	c-0.2,1.7-1.1,3.1-2.1,4.3c-2.2,2.3-5.2,3.6-8.4,3.8c-2.2,0.1-4.8-0.2-7.2-1.8c-4.3-2.8-3.9-6-3.5-7.4c0.1-0.4,0.5-0.7,0.9-0.7h4.7
	c0.5,0,0.9,0.3,0.9,0.8c0.3,1.7,1.1,5.3,4.1,4c3.8-1.6-0.4-4.3-3.8-5.5c0,0-5.6-2.3-3.4-7.4c2.3-5.1,7.7-6,7.7-6s13-2.6,12,8.5
	C150.8,37.2,150.5,37.5,150,37.5z"/>
<path class="st0" d="M179.3,36h11.2c0.2,0,0.3,0.2,0.2,0.4l-2.2,5.7c-0.1,0.3-0.3,0.4-0.6,0.4h-11.4c-0.2,0-0.3-0.2-0.2-0.3l2.5-5.8
	C178.9,36.1,179.1,36,179.3,36z"/>
<path class="st2" d="M277.1,41.2c-3.8,8.5-12.7,11.9-19.3,9.9c-6.8-2.1-9.3-12.5-5.5-21s12.2-12.2,19.3-9.9
	C280,23,280.9,32.6,277.1,41.2z"/>
<ellipse transform="matrix(0.4078 -0.9131 0.9131 0.4078 124.3722 262.8387)" class="st3" cx="264.8" cy="35.5" rx="9.2" ry="6.3"/>
<path class="st0" d="M217.4,20.6h5.7c0.3,0,0.5,0.3,0.4,0.5l-3.6,10.3c-0.1,0.2-0.2,0.3-0.5,0.3h-5.2c-0.2,0-0.4-0.1-0.5-0.3
	c-0.7-1.5-3.8-8.1-7.5-3.7c0,0-2.1,2.3,4.7,4.6c7.7,2.5,9.1,8.9,5.8,13.9c-3.3,5-9.6,7.9-18.6,2.3c0,0-0.1,0-0.1,0l-0.6,2.2
	c-0.1,0.5-0.6,0.9-1.1,0.9h-6.9c-0.2,0-0.4-0.3-0.3-0.5l5-12.3c0.1-0.2,0.3-0.4,0.6-0.4h3.8c0.4,0,0.7,0.2,0.8,0.5
	c0.7,1.8,3.1,7.5,7.7,5.4c0,0,6.8-3.4-4-7.2c-2-0.7-3.7-1.9-4.9-3.6c-1.6-2.4-2.4-6,1.8-10.8c0,0,7.4-8.1,15.8-0.7
	c0.1,0.1,0.4,0.1,0.5-0.1l0.7-1.2C217,20.7,217.2,20.6,217.4,20.6z"/>
<circle class="st4" cx="310.3" cy="54.8" r="8"/>
<circle class="st5" cx="310.3" cy="54.8" r="6.6"/>
<g>
	<path class="st6" d="M310.6,55.5h-1.7v2.9h-0.9v-7.1h2.4c0.8,0,1.4,0.2,1.8,0.5c0.4,0.4,0.6,0.9,0.6,1.6c0,0.4-0.1,0.8-0.4,1.2
		c-0.2,0.3-0.6,0.6-1,0.7l1.7,3v0.1h-1L310.6,55.5z M308.9,54.7h1.4c0.5,0,0.8-0.1,1.1-0.4c0.3-0.2,0.4-0.6,0.4-1
		c0-0.4-0.1-0.8-0.4-1c-0.3-0.2-0.6-0.4-1.1-0.4h-1.4V54.7z"/>
</g>
<path class="st7" d="M226.2,19.7l-1.4,5.3c0,0.2,0.1,0.4,0.3,0.4l2,0c0.2,0,0.3,0.2,0.3,0.4l-4.5,18.6c-0.1,0.1-0.2,0.1-0.3,0.2
	l-2-0.1c-0.1,0-0.3,0.1-0.3,0.2l-1.4,5.3c0,0.2,0.1,0.4,0.3,0.4l11.8,0.4c0.1,0,0.3-0.1,0.3-0.2l1.3-4.9c0-0.2-0.1-0.4-0.3-0.4
	l-1.9-0.1c-0.2,0-0.3-0.2-0.3-0.4l1.5-6.4c0.1-0.1,0.2-0.1,0.3-0.2l8,0.4c0.2,0,0.3,0.2,0.3,0.4l-1.5,6.4c0,0.1-0.2,0.2-0.3,0.2
	l-2.1-0.1c0,0,0,0,0,0l-1.2,5c0,0.2,0.1,0.4,0.3,0.4l10.7,0.4c0.1,0,0.3-0.1,0.3-0.2l0.9-4.5c0-0.2-0.1-0.3-0.3-0.3l-2.1-0.2
	c-0.2,0-0.3-0.2-0.3-0.4l5-20.2c0-0.1,0.2-0.2,0.3-0.2l1.9,0c0.1-0.1,0.2-0.1,0.3-0.2l1.4-5.3c0.1-0.2-0.1-0.4-0.3-0.4H242
	c-0.1,0-0.3,0.1-0.3,0.2l-1.1,5.3c0,0.2,0.1,0.4,0.3,0.4h1.7c0.2,0,0.3,0.2,0.3,0.4l-1.6,6.6c-0.1,0.1-0.2,0.1-0.3,0.2l-7.7-0.3
	c-0.2,0-0.3-0.2-0.3-0.4l1.5-6.6l0,0l1.7,0c0.1-0.1,0.2-0.1,0.3-0.2l1.2-5.3c0-0.2-0.1-0.4-0.3-0.4h-11
	C226.3,19.6,226.3,19.6,226.2,19.7z"/>
<path class="st8" d="M286.4,25.2L282,44.9c-0.1,0.2-0.3,0.4-0.5,0.4h-3.3c-0.2,0-0.4,0.2-0.5,0.4l-1.1,5.3c-0.1,0.3,0.2,0.6,0.5,0.6
	h18c0.2,0,0.4-0.2,0.5-0.4l1.1-5.3c0.1-0.3-0.2-0.6-0.5-0.6h-7.1c-0.3,0-0.6-0.3-0.5-0.6l1-4.7c0.1-0.2,0.3-0.4,0.5-0.4
	c2.6,0.3,15.8,1.1,16.5-10.9c0,0,1-9-7.8-9.4h-16.3c-0.2,0-0.4,0.2-0.5,0.4L281,24c-0.1,0.3,0.2,0.6,0.5,0.6l4.5,0
	C286.2,24.6,286.5,24.9,286.4,25.2z"/>
<path class="st9" d="M293.3,25.5l-1.6,7.9c-0.1,0.3,0.2,0.6,0.5,0.6c2-0.1,8.3-0.8,8.4-4.9c0.1-4.7-4.4-4.3-6.9-3.9
	C293.4,25.2,293.3,25.4,293.3,25.5z"/>
<g>
	<path class="st10" d="M34.4,73.6l-2.1-7.2c0-0.1,0.1-0.3,0.2-0.3h0.9c0.1,0,0.2,0.1,0.2,0.2L35,71c0.1,0.2,0.3,0.2,0.4,0l1.3-4.7
		c0-0.1,0.1-0.2,0.2-0.2h0.9c0.1,0,0.2,0.1,0.2,0.3l-2.1,7.2c0,0.1-0.1,0.2-0.2,0.2h-1C34.6,73.7,34.5,73.6,34.4,73.6z"/>
	<path class="st10" d="M39.4,73.5v-7.1c0-0.1,0.1-0.2,0.2-0.2h0.8c0.1,0,0.2,0.1,0.2,0.2v7.1c0,0.1-0.1,0.2-0.2,0.2h-0.8
		C39.5,73.7,39.4,73.6,39.4,73.5z"/>
	<path class="st10" d="M42.5,73.4v-6.9c0-0.2,0.2-0.3,0.3-0.3h2.3c0.7,0,1.2,0.1,1.4,0.2c0.3,0.1,0.5,0.4,0.7,0.7
		c0.2,0.3,0.3,0.7,0.3,1.2c0,0.6-0.1,1.1-0.4,1.4c-0.2,0.2-0.4,0.4-0.7,0.5c-0.2,0.1-0.3,0.4-0.1,0.5c0.1,0.1,0.2,0.2,0.2,0.2
		c0.2,0.2,0.4,0.6,0.7,1.2l0.5,1c0.1,0.2,0,0.5-0.3,0.5h-0.7c-0.1,0-0.2-0.1-0.3-0.2l-0.8-1.5c-0.3-0.6-0.5-1-0.7-1.1
		c-0.1-0.2-0.2-0.3-0.4-0.3c-0.1-0.1-0.3-0.1-0.6-0.1h-0.3v2.8c0,0.2-0.2,0.3-0.3,0.3h-0.6C42.7,73.7,42.5,73.6,42.5,73.4z M43.8,69
		c0,0.2,0.2,0.3,0.3,0.3h0.6c0.6,0,0.9,0,1.1-0.1c0.2,0,0.3-0.2,0.4-0.3c0.1-0.2,0.1-0.4,0.1-0.6c0-0.2,0-0.4-0.1-0.6
		c-0.1-0.1-0.2-0.2-0.4-0.3c-0.1,0-0.5-0.1-1-0.1h-0.6c-0.2,0-0.3,0.2-0.3,0.3V69z"/>
	<path class="st10" d="M50.9,73.5v-5.9c0-0.1-0.1-0.2-0.2-0.2h-1.5c-0.1,0-0.2-0.1-0.2-0.2v-0.9c0-0.1,0.1-0.2,0.2-0.2h4.6
		c0.1,0,0.2,0.1,0.2,0.2v0.9c0,0.1-0.1,0.2-0.2,0.2h-1.5c-0.1,0-0.2,0.1-0.2,0.2v5.9c0,0.1-0.1,0.2-0.2,0.2h-0.9
		C51,73.7,50.9,73.6,50.9,73.5z"/>
	<path class="st10" d="M55.7,66.1h0.8c0.1,0,0.2,0.1,0.2,0.2v3.9c0,0.6,0,1.1,0,1.2c0.1,0.3,0.2,0.6,0.4,0.8
		c0.2,0.2,0.5,0.3,0.8,0.3c0.3,0,0.5-0.1,0.7-0.2c0.2-0.1,0.3-0.3,0.4-0.5c0.1-0.2,0.1-0.7,0.1-1.5v-4c0-0.1,0.1-0.2,0.2-0.2h0.8
		c0.1,0,0.2,0.1,0.2,0.2v3.7c0,1-0.1,1.8-0.2,2.2c-0.1,0.5-0.4,0.8-0.7,1.1c-0.4,0.3-0.9,0.4-1.5,0.4c-0.6,0-1.2-0.1-1.5-0.3
		c-0.4-0.2-0.6-0.6-0.8-1c-0.2-0.4-0.2-1.2-0.2-2.3v-3.8C55.5,66.2,55.6,66.1,55.7,66.1z"/>
	<path class="st10" d="M62.5,73.4v-7c0-0.2,0.1-0.3,0.3-0.3h4.1c0.2,0,0.3,0.1,0.3,0.3v0.7c0,0.2-0.1,0.3-0.3,0.3H64
		c-0.2,0-0.3,0.1-0.3,0.3v1.1c0,0.2,0.1,0.3,0.3,0.3h2.6c0.2,0,0.3,0.1,0.3,0.3v0.7c0,0.2-0.1,0.3-0.3,0.3H64
		c-0.2,0-0.3,0.1-0.3,0.3v1.5c0,0.2,0.1,0.3,0.3,0.3H67c0.2,0,0.3,0.1,0.3,0.3v0.7c0,0.2-0.1,0.3-0.3,0.3h-4.2
		C62.6,73.7,62.5,73.6,62.5,73.4z"/>
	<path class="st10" d="M69,73.5v-7.1c0-0.1,0.1-0.2,0.2-0.2h0.8c0.1,0,0.2,0.1,0.2,0.2v5.8c0,0.1,0.1,0.2,0.2,0.2h2.7
		c0.1,0,0.2,0.1,0.2,0.2v0.8c0,0.1-0.1,0.2-0.2,0.2h-3.9C69.1,73.7,69,73.6,69,73.5z"/>
	<path class="st10" d="M75.8,73.5v-5.9c0-0.1-0.1-0.2-0.2-0.2h-1.4c-0.1,0-0.2-0.1-0.2-0.2v-0.9c0-0.1,0.1-0.2,0.2-0.2h4.5
		c0.1,0,0.2,0.1,0.2,0.2v0.9c0,0.1-0.1,0.2-0.2,0.2h-1.4c-0.1,0-0.2,0.1-0.2,0.2v5.9c0,0.1-0.1,0.2-0.2,0.2H76
		C75.9,73.7,75.8,73.6,75.8,73.5z"/>
	<path class="st10" d="M85.1,73.6L83,66.4c0-0.1,0.1-0.3,0.2-0.3h0.9c0.1,0,0.2,0.1,0.2,0.2l1.3,4.7c0.1,0.2,0.4,0.2,0.4,0l1.3-4.7
		c0-0.1,0.1-0.2,0.2-0.2h0.9c0.1,0,0.2,0.1,0.2,0.3l-2.1,7.2c0,0.1-0.1,0.2-0.2,0.2h-1C85.2,73.7,85.1,73.6,85.1,73.6z"/>
	<path class="st10" d="M89.1,73.5l2.8-7.2c0-0.1,0.1-0.1,0.2-0.1h5.3c0.1,0,0.2,0.1,0.2,0.2v0.9c0,0.1-0.1,0.2-0.2,0.2h-2.7
		c-0.1,0-0.2,0.1-0.2,0.2v1.3c0,0.1,0.1,0.2,0.2,0.2h2.5c0.1,0,0.2,0.1,0.2,0.2v0.9c0,0.1-0.1,0.2-0.2,0.2h-2.5
		c-0.1,0-0.2,0.1-0.2,0.2v1.7c0,0.1,0.1,0.2,0.2,0.2h2.8c0.1,0,0.2,0.1,0.2,0.2v0.9c0,0.1-0.1,0.2-0.2,0.2h-4.1
		c-0.1,0-0.2-0.1-0.2-0.2l0-1.4c0-0.1-0.1-0.2-0.2-0.2h-1.8c-0.1,0-0.1,0-0.2,0.1l-0.6,1.5c0,0.1-0.1,0.1-0.2,0.1h-1
		C89.2,73.7,89.1,73.6,89.1,73.5z M91.8,70.6H93c0.1,0,0.2-0.1,0.2-0.2l0-3c0-0.1-0.1-0.2-0.2-0.2h-0.2c-0.1,0-0.1,0-0.2,0.1l-1.1,3
		C91.6,70.5,91.7,70.6,91.8,70.6z"/>
	<path class="st10" d="M99.4,73.4v-7c0-0.2,0.1-0.3,0.3-0.3h2.4c0.7,0,1.2,0.1,1.4,0.2c0.3,0.1,0.5,0.4,0.7,0.7
		c0.2,0.3,0.3,0.7,0.3,1.2c0,0.6-0.1,1.1-0.4,1.4c-0.2,0.2-0.4,0.4-0.7,0.5c-0.2,0.1-0.2,0.3-0.1,0.5c0.1,0.1,0.2,0.2,0.3,0.3
		c0.2,0.2,0.4,0.6,0.7,1.2l0.5,1.1c0.1,0.2,0,0.4-0.2,0.4h-0.9c-0.1,0-0.2-0.1-0.2-0.1l-0.8-1.5c-0.3-0.6-0.5-1-0.7-1.1
		c-0.1-0.2-0.2-0.3-0.4-0.3c-0.1-0.1-0.3-0.1-0.6-0.1h-0.3v2.9c0,0.2-0.1,0.3-0.3,0.3h-0.7C99.6,73.7,99.4,73.6,99.4,73.4z
		 M100.7,69.1c0,0.2,0.1,0.3,0.3,0.3h0.7c0.6,0,0.9,0,1.1-0.1c0.2,0,0.3-0.2,0.4-0.3c0.1-0.2,0.1-0.4,0.1-0.6c0-0.2,0-0.4-0.1-0.6
		c-0.1-0.1-0.2-0.2-0.4-0.3c-0.1,0-0.5-0.1-1-0.1H101c-0.2,0-0.3,0.1-0.3,0.3V69.1z"/>
	<path class="st10" d="M106.4,73.4v-7.1c0-0.1,0.1-0.3,0.3-0.3h0.7c0.1,0,0.3,0.1,0.3,0.3v2.3c0,0.3,0.3,0.4,0.5,0.2l2-2.6
		c0.1-0.1,0.1-0.1,0.2-0.1h1c0.2,0,0.3,0.3,0.2,0.4l-1.9,2.4c-0.1,0.1-0.1,0.2,0,0.3l2.2,4.1c0.1,0.2,0,0.4-0.2,0.4h-1
		c-0.1,0-0.2-0.1-0.2-0.2l-1.5-3c-0.1-0.2-0.3-0.2-0.4-0.1l-0.7,0.9c0,0-0.1,0.1-0.1,0.2v1.9c0,0.1-0.1,0.3-0.3,0.3h-0.7
		C106.5,73.7,106.4,73.6,106.4,73.4z"/>
	<path class="st10" d="M114.8,73.5v-5.9c0-0.1-0.1-0.2-0.2-0.2h-1.5c-0.1,0-0.2-0.1-0.2-0.2v-0.9c0-0.1,0.1-0.2,0.2-0.2h4.6
		c0.1,0,0.2,0.1,0.2,0.2v0.9c0,0.1-0.1,0.2-0.2,0.2h-1.5c-0.1,0-0.2,0.1-0.2,0.2v5.9c0,0.1-0.1,0.2-0.2,0.2H115
		C114.9,73.7,114.8,73.6,114.8,73.5z"/>
	<path class="st10" d="M124.1,66.6l0.5-0.7c0-0.1,0.1-0.1,0.2,0l0.4,0.5c0,0,0,0.1,0,0.1l-0.6,0.8c0,0,0,0.1,0,0.1
		c0.4,0.7,0.6,1.5,0.6,2.5c0,1.1-0.2,2-0.7,2.7c-0.5,0.8-1.3,1.2-2.3,1.2c-0.7,0-1.3-0.2-1.8-0.6c-0.1,0-0.1,0-0.2,0l-0.5,0.7
		c0,0.1-0.1,0.1-0.2,0l-0.4-0.5c0,0,0-0.1,0-0.1l0.6-0.9c0,0,0-0.1,0-0.1c-0.2-0.3-0.3-0.7-0.4-1c-0.1-0.5-0.2-1-0.2-1.6
		c0-1.2,0.3-2.2,0.9-2.9c0.5-0.6,1.2-0.9,2.1-0.9c0.7,0,1.3,0.2,1.8,0.6C124,66.6,124.1,66.6,124.1,66.6z M123.2,67.8
		c0,0,0-0.1,0-0.2c-0.3-0.2-0.6-0.4-1-0.4c-0.5,0-0.9,0.2-1.2,0.6c-0.3,0.4-0.5,1.1-0.5,2c0,0.5,0,0.8,0.1,1.2c0,0.1,0.1,0.1,0.2,0
		L123.2,67.8z M123.6,68.8l-2.4,3.3c0,0,0,0.1,0,0.2c0.3,0.3,0.6,0.4,1,0.4c0.5,0,0.9-0.2,1.2-0.7s0.5-1.1,0.5-2
		c0-0.4,0-0.8-0.1-1.1C123.8,68.7,123.6,68.7,123.6,68.8z"/>
	<path class="st10" d="M129.4,66.1h0.8c0.1,0,0.2,0.1,0.2,0.2v4.6c0,0.8-0.1,1.4-0.2,1.7c-0.2,0.4-0.4,0.7-0.7,0.9
		c-0.3,0.2-0.7,0.3-1.1,0.3c-0.6,0-1.1-0.2-1.4-0.6c-0.3-0.4-0.5-0.9-0.5-1.6c0-0.1,0.1-0.2,0.2-0.3l0.7-0.1c0.1,0,0.3,0.1,0.3,0.2
		c0,0.3,0.1,0.5,0.2,0.7c0.1,0.3,0.3,0.4,0.6,0.4c0.3,0,0.5-0.1,0.6-0.3c0.1-0.2,0.2-0.6,0.2-1.2v-4.6
		C129.1,66.2,129.2,66.1,129.4,66.1z"/>
	<path class="st10" d="M132.3,71.2l0.8-0.1c0.1,0,0.2,0.1,0.2,0.2c0.2,0.8,0.6,1.3,1.3,1.3c0.6,0,1-0.2,1.2-0.7c0,0,0,0,0-0.1
		c0.1-0.3,0-0.5-0.1-0.7c-0.1-0.1-0.2-0.2-0.3-0.3c-0.2-0.1-0.5-0.2-1.1-0.4c-0.5-0.2-0.9-0.3-1.2-0.5s-0.4-0.4-0.6-0.7
		c-0.1-0.3-0.2-0.6-0.2-1c0-0.4,0.1-0.8,0.3-1.1c0.2-0.3,0.4-0.6,0.8-0.7c0.3-0.2,0.7-0.3,1.2-0.3c0.7,0,1.3,0.2,1.7,0.6
		c0.4,0.4,0.6,0.9,0.6,1.5c0,0.1-0.1,0.2-0.2,0.2l-0.9,0c-0.1,0-0.2-0.1-0.2-0.2c-0.1-0.3-0.2-0.5-0.3-0.7c-0.2-0.2-0.4-0.2-0.8-0.2
		c-0.3,0-0.6,0.1-0.8,0.2c-0.2,0.1-0.3,0.3-0.3,0.5c0,0.2,0.1,0.4,0.2,0.5c0.2,0.1,0.5,0.3,1.1,0.5c0.6,0.2,1.1,0.4,1.4,0.6
		c0.3,0.2,0.5,0.5,0.6,0.8c0.1,0.3,0.2,0.7,0.2,1.2c0,0.7-0.2,1.2-0.6,1.7c-0.4,0.4-1,0.7-1.9,0.7c-1.5,0-2.3-0.8-2.5-2.4
		C132.1,71.3,132.2,71.2,132.3,71.2z"/>
	<path class="st10" d="M138.9,71.2l0.6-0.1c0.2,0,0.3,0.1,0.4,0.3c0.2,0.8,0.6,1.2,1.3,1.2c0.6,0,1-0.2,1.2-0.7c0,0,0-0.1,0-0.1
		c0.1-0.3,0-0.5-0.1-0.7c-0.1-0.1-0.2-0.2-0.3-0.3c-0.2-0.1-0.5-0.2-1.1-0.4c-0.5-0.2-0.9-0.3-1.2-0.5s-0.4-0.4-0.6-0.7
		c-0.1-0.3-0.2-0.6-0.2-1c0-0.4,0.1-0.8,0.3-1.1c0.2-0.3,0.4-0.6,0.8-0.7c0.3-0.2,0.7-0.3,1.2-0.3c0.7,0,1.3,0.2,1.7,0.6
		c0.3,0.3,0.5,0.8,0.6,1.3c0,0.2-0.1,0.4-0.3,0.4l-0.6,0c-0.2,0-0.3-0.1-0.3-0.3c-0.1-0.3-0.2-0.5-0.3-0.6c-0.2-0.2-0.4-0.2-0.8-0.2
		c-0.3,0-0.6,0.1-0.8,0.2c-0.2,0.1-0.3,0.3-0.3,0.5c0,0.2,0.1,0.4,0.2,0.5c0.2,0.1,0.5,0.3,1.1,0.5c0.6,0.2,1.1,0.4,1.4,0.6
		c0.3,0.2,0.5,0.5,0.6,0.8c0.1,0.3,0.2,0.7,0.2,1.2c0,0.7-0.2,1.2-0.6,1.7c-0.4,0.4-1,0.7-1.9,0.7c-1.4,0-2.3-0.8-2.5-2.3
		C138.6,71.4,138.8,71.2,138.9,71.2z"/>
	<path class="st10" d="M145.4,73.5v-7.1c0-0.1,0.1-0.2,0.2-0.2h0.8c0.1,0,0.2,0.1,0.2,0.2v2.5c0,0.2,0.3,0.3,0.4,0.1l2.1-2.8
		c0-0.1,0.1-0.1,0.2-0.1h1.1c0.2,0,0.3,0.2,0.2,0.4l-2,2.5c-0.1,0.1-0.1,0.2,0,0.2l2.2,4.2c0.1,0.1,0,0.3-0.2,0.3h-1.1
		c-0.1,0-0.2,0-0.2-0.1l-1.5-3.1c-0.1-0.1-0.3-0.2-0.4,0l-0.7,0.9c0,0,0,0.1,0,0.1v2c0,0.1-0.1,0.2-0.2,0.2h-0.8
		C145.5,73.7,145.4,73.6,145.4,73.5z"/>
	<path class="st10" d="M157.6,73.7h-0.7c-0.1,0-0.2-0.1-0.3-0.2l-0.4-1.3c0-0.1-0.2-0.2-0.3-0.2h-2c-0.1,0-0.2,0.1-0.3,0.2l-0.4,1.3
		c0,0.1-0.2,0.2-0.3,0.2h-0.7c-0.2,0-0.3-0.2-0.3-0.4l2.2-7c0-0.1,0.2-0.2,0.3-0.2h0.9c0.1,0,0.2,0.1,0.3,0.2l2.3,7
		C158,73.5,157.8,73.7,157.6,73.7z M155.6,70.3l-0.5-1.5c-0.1-0.3-0.5-0.3-0.6,0l-0.4,1.5c-0.1,0.2,0.1,0.4,0.3,0.4h0.9
		C155.5,70.7,155.6,70.5,155.6,70.3z"/>
	<path class="st10" d="M159.4,66.4c0-0.1,0.1-0.3,0.3-0.3h2.2c0.7,0,1.2,0.1,1.4,0.2c0.3,0.1,0.5,0.3,0.7,0.7
		c0.2,0.3,0.3,0.7,0.3,1.1c0,0.4-0.1,0.7-0.2,1c-0.1,0.2-0.2,0.3-0.3,0.4c-0.1,0.1-0.1,0.3,0,0.4c0.2,0.1,0.4,0.3,0.5,0.5
		c0.2,0.3,0.3,0.7,0.3,1.2c0,0.6-0.1,1-0.4,1.4c-0.3,0.4-0.6,0.6-0.9,0.7c-0.3,0.1-0.8,0.1-1.8,0.1h-1.8c-0.1,0-0.3-0.1-0.3-0.3
		V66.4z M160.6,67.7v1.2c0,0.1,0.1,0.3,0.3,0.3h0.6c0.5,0,0.8,0,0.9,0c0.2,0,0.4-0.1,0.5-0.3c0.1-0.1,0.2-0.3,0.2-0.6
		c0-0.2,0-0.4-0.1-0.5c-0.1-0.1-0.2-0.2-0.4-0.3c-0.1,0-0.5-0.1-1.2-0.1h-0.5C160.8,67.4,160.6,67.5,160.6,67.7z M160.6,70.7v1.5
		c0,0.1,0.1,0.3,0.3,0.3h0.9c0.5,0,0.8,0,1-0.1c0.1-0.1,0.3-0.2,0.4-0.3c0.1-0.2,0.1-0.4,0.1-0.6c0-0.2-0.1-0.5-0.2-0.6
		c-0.1-0.2-0.2-0.3-0.4-0.3c-0.2-0.1-0.5-0.1-1.1-0.1h-0.7C160.8,70.4,160.6,70.5,160.6,70.7z"/>
</g>
</svg>
