<?xml version="1.0" encoding="utf-8"?>
<!-- Generator: Adobe Illustrator 22.0.1, SVG Export Plug-In . SVG Version: 6.00 Build 0)  -->
<svg version="1.1" id="Capa_1" xmlns="http://www.w3.org/2000/svg" xmlns:xlink="http://www.w3.org/1999/xlink" x="0px" y="0px"
	 viewBox="0 0 71.461 71.461" style="enable-background:new 0 0 71.461 71.461;" xml:space="preserve">
<style type="text/css">
	.st0{fill:#353535;}
</style>
<g>
	<g id="Layer_1_107_">
		<g>
			<path class="st0" d="M1.0154,14.5801L4.626,39.8537c0.2527,1.7764,1.7764,3.0978,3.5744,3.0978h40.8674l-0.5993,3.6105H11.8109
				c-1.9966,0-3.6105,1.6139-3.6105,3.6105s1.6139,3.6105,3.6105,3.6105c0,0,39.7157,0,39.7193,0
				c0.4658,0,0.9062-0.1011,1.3251-0.2708c0.148-0.0578,0.2672-0.1589,0.4044-0.2347c0.2455-0.1372,0.4874-0.2744,0.6968-0.4694
				c0.13-0.1228,0.2311-0.2636,0.343-0.4044c0.1625-0.2058,0.3177-0.408,0.4333-0.6463c0.0903-0.1733,0.1372-0.3538,0.195-0.5452
				c0.0505-0.1516,0.1336-0.2852,0.1625-0.4477l6.7156-40.3078h5.0656c1.9966,0,3.6105-1.6139,3.6105-3.6105
				s-1.6139-3.6105-3.6105-3.6105h-8.1237c-1.7655,0-3.2711,1.2781-3.56,3.0184l-0.704,4.2026H4.5899
				c-1.047,0-2.0399,0.4549-2.7295,1.2456C1.1779,12.4896,0.8674,13.5403,1.0154,14.5801z M22.6424,17.6779v7.221H9.7818
				l-1.029-7.221H22.6424z M37.0845,17.6779v7.221H26.2529v-7.221H37.0845z M37.0845,28.5095v7.221H26.2529v-7.221
				C26.2529,28.5095,37.0845,28.5095,37.0845,28.5095z M53.2813,17.6779l-1.2204,7.3293c-0.1697-0.0542-0.343-0.1083-0.5344-0.1083
				H40.695v-7.221H53.2813z M50.2737,35.7305H40.695v-7.221h10.781L50.2737,35.7305z M11.3307,35.7305l-1.029-7.221h12.3407v7.221
				H11.3307z"/>
			<circle class="st0" cx="46.1108" cy="62.8094" r="5.4158"/>
			<circle class="st0" cx="13.6161" cy="62.8094" r="5.4158"/>
		</g>
	</g>
</g>
</svg>
