<?xml version="1.0" encoding="utf-8"?>
<!-- Generator: Adobe Illustrator 22.0.1, SVG Export Plug-In . SVG Version: 6.00 Build 0)  -->
<svg version="1.1" id="Capa_1" xmlns="http://www.w3.org/2000/svg" xmlns:xlink="http://www.w3.org/1999/xlink" x="0px" y="0px"
	 viewBox="0 0 489.108 489.108" style="enable-background:new 0 0 489.108 489.108;" xml:space="preserve">
<style type="text/css">
	.st0{fill:#353535;}
</style>
<g id="XMLID_476_">
	<path id="XMLID_503_" class="st0" d="M481.5318,189.1434c6.3315-6.3305,6.3315-16.5962,0-22.9278l-24.3307-24.3307
		c-5.5026-5.5025-14.1417-6.3186-20.577-1.9455l-51.1581,34.7705l34.5598-51.504c4.3158-6.4321,3.4792-15.0204-1.9996-20.497
		l-52.7773-52.7772c-4.8724-4.8724-12.2913-6.1337-18.4974-3.1431l-9.1255,4.3936l4.3698-9.6951
		c2.7702-6.1446,1.4494-13.3602-3.316-18.1267l-16.567-16.5649c-6.3305-6.3305-16.5963-6.3305-22.9278,0L170.5006,135.4788
		l182.3479,182.3479L481.5318,189.1434z"/>
	<path id="XMLID_1199_" class="st0" d="M146.5395,159.4409l-37.2521,37.2521c-3.0404,3.0404-4.7492,7.1638-4.7492,11.4633
		c0,4.2996,1.7077,8.4241,4.7492,11.4634l35.3369,35.3369c6.8082,6.8082,10.1102,16.2039,9.0596,25.7769
		c-1.0495,9.5665-6.3153,18.0251-14.4465,23.2088C35.4036,370.1305,25.7247,379.8105,22.5449,382.9914
		c-22.8262,22.8251-22.8262,59.9648,0,82.7921c22.8489,22.8489,59.9907,22.8035,82.7921,0
		c3.182-3.1809,12.8641-12.8641,79.0481-116.6925c5.1707-8.1117,13.6261-13.3656,23.1969-14.4173
		c9.6011-1.0473,18.9957,2.2384,25.7877,9.0293l35.3369,35.3369c6.3304,6.3304,16.5973,6.3304,22.9278,0l37.2532-37.2532
		L146.5395,159.4409z M81.1381,439.597c-8.9493,8.9493-23.4585,8.9493-32.4067,0c-8.9493-8.9493-8.9493-23.4585,0-32.4067
		c8.9493-8.9493,23.4585-8.9493,32.4067,0C90.0874,416.1385,90.0874,430.6476,81.1381,439.597z"/>
</g>
</svg>
