<?xml version="1.0" encoding="utf-8"?>
<!-- Generator: Adobe Illustrator 22.0.1, SVG Export Plug-In . SVG Version: 6.00 Build 0)  -->
<svg version="1.1" id="Layer_1" xmlns="http://www.w3.org/2000/svg" xmlns:xlink="http://www.w3.org/1999/xlink" x="0px" y="0px"
	 width="591px" height="494px" viewBox="0 0 591 494" style="enable-background:new 0 0 591 494;" xml:space="preserve">
<style type="text/css">
	.st0{fill:#353535;}
</style>
<g>
	<g>
		<g>
			<path class="st0" d="M29.0009,452.5057c0,19.9948,16.2958,36.2657,36.2657,36.2657h193.4173
				c19.9949,0,36.2657-16.2708,36.2657-36.2657v-84.6203H29.0009V452.5057z"/>
			<path class="st0" d="M572.986,77.7611h-89.2136l-14.1436-28.311c-6.189-12.3553-18.6406-20.0436-32.4453-20.0436H381.552
				l-40.8839-13.6121C319.6827,8.7827,297.8258,5.2286,275.68,5.2286H41.0898c-19.9699,0-36.2657,16.2708-36.2657,36.2657v96.7092
				c0,19.9949,16.2958,36.2657,36.2657,36.2657h58.4365L78.2259,312.8103l-41.174,30.8984h248.2748l-73.7157-31.5999l8.196-53.3344
				c0.8942,0.1938,1.7646,0.3139,2.6349,0.3139c5.4161,0,10.3482-3.6504,11.7013-9.1627l12.0889-48.3546
				c1.6195-6.4791-2.321-13.0318-8.8001-14.6513c-2.2972-0.5802-4.5695-0.2663-6.6491,0.4352l2.0071-12.8857h42.866
				c22.1459,0,44.0027-3.554,64.9881-10.5658l40.8839-13.6121h55.6316c13.8297,0,26.2563-7.6883,32.4453-20.0424l14.1436-28.3111
				h89.2373c6.6729,0,12.0889-5.4161,12.0889-12.0889S579.6589,77.7611,572.986,77.7611z M137.7979,126.1146H65.2665
				c-6.6729,0-12.0889-5.4161-12.0889-12.089s5.416-12.0878,12.0889-12.0878h72.5314c6.6729,0,12.0889,5.4161,12.0889,12.0889
				S144.4708,126.1146,137.7979,126.1146z M137.7979,77.7611H65.2665c-6.6729,0-12.0889-5.416-12.0889-12.0889
				s5.416-12.0889,12.0889-12.0889h72.5314c6.6729,0,12.0889,5.4161,12.0889,12.0889
				C149.8868,72.3451,144.4708,77.7611,137.7979,77.7611z M391.6577,114.0268c0,6.6729-5.416,12.089-12.0889,12.089
				s-12.0878-5.4161-12.0878-12.089V65.6722c0-6.6729,5.416-12.0889,12.0889-12.0889s12.0878,5.4161,12.0878,12.0889V114.0268z"/>
		</g>
	</g>
</g>
</svg>
