<?xml version="1.0" encoding="utf-8"?>
<!-- Generator: Adobe Illustrator 22.0.1, SVG Export Plug-In . SVG Version: 6.00 Build 0)  -->
<svg version="1.1" id="Capa_1" xmlns="http://www.w3.org/2000/svg" xmlns:xlink="http://www.w3.org/1999/xlink" x="0px" y="0px"
	 viewBox="0 0 487.937 487.937" style="enable-background:new 0 0 487.937 487.937;" xml:space="preserve">
<style type="text/css">
	.st0{fill:#353535;}
</style>
<g>
	<g id="iconos_17_">
		<polygon class="st0" points="11.7018,41.6345 68.2441,41.6345 68.2441,124.5632 39.9735,135.8717 39.9735,145.2959 
			68.2441,133.9865 68.2441,162.2581 39.9735,173.5665 39.9735,182.9908 68.2441,171.6813 68.2441,199.9529 39.9735,211.2614 
			39.9735,220.6856 68.2441,209.3762 68.2441,237.6478 39.9735,248.9563 39.9735,258.3805 68.2441,247.072 68.2441,275.3427 
			39.9735,286.6512 39.9735,296.0753 68.2441,284.7669 68.2441,313.0375 39.9735,324.346 39.9735,333.7702 68.2441,322.4618 
			68.2441,350.7324 39.9735,362.0409 39.9735,371.4651 68.2441,360.1566 68.2441,442.1422 111.8293,484.7951 153.0581,442.1422 
			153.0581,326.2303 181.3288,314.9218 181.3288,305.4986 153.0581,316.807 153.0581,288.5354 181.3288,277.227 181.3288,267.8037 
			153.0581,279.1122 153.0581,250.8405 181.3288,239.5321 181.3288,230.1088 153.0581,241.4173 153.0581,213.1466 
			181.3288,201.8372 181.3288,192.414 153.0581,203.7224 153.0581,175.4518 181.3288,164.1423 181.3288,154.7191 153.0581,166.0276 
			153.0581,137.7569 181.3288,126.4475 181.3288,117.0242 153.0581,128.3327 153.0581,100.062 181.3288,88.7526 181.3288,79.3294 
			153.0581,90.6378 153.0581,41.6345 209.6004,41.6345 209.6004,3.9396 11.7018,3.9396 		"/>
		<path class="st0" d="M348.7984,178.8625c-42.5198,0-77.1143,34.5945-77.1143,77.1143s34.5945,77.1143,77.1143,77.1143
			s77.1143-34.5945,77.1143-77.1143S391.3172,178.8625,348.7984,178.8625z M348.7984,313.4988
			c-31.7672,0-57.5229-25.7547-57.5229-57.5219s25.7557-57.5229,57.5229-57.5229c31.7662,0,57.5219,25.7547,57.5219,57.5229
			C406.3301,287.744,380.5745,313.4988,348.7984,313.4988z"/>
		<path class="st0" d="M284.1042,145.2959l-64.308,113.0846l64.308,113.0846h128.605l64.308-113.0846l-64.308-113.0846
			L284.1042,145.2959L284.1042,145.2959z M348.7984,342.5056c-47.7123,0-86.5376-38.8163-86.5376-86.5376
			s38.8252-86.5376,86.5376-86.5376s86.5376,38.8163,86.5376,86.5376C435.336,303.6892,396.5196,342.5056,348.7984,342.5056z"/>
	</g>
</g>
</svg>
